<svg width="463" height="255" viewBox="0 0 463 255" fill="none" xmlns="http://www.w3.org/2000/svg">
<g clip-path="url(#clip0_50_124)">
<path d="M354.3 37.7C341.1 52.3 335.1 72.4 334.2 92.1C333.3 111.2 341.3 135.1 360.4 136.8C368.6 137.5 376.8 133.7 384.9 135.2C398.7 137.8 404.8 154.6 403.8 168.6C402.8 182.6 397.4 196.3 398.8 210.2C400.9 231.3 419.4 248.7 440.3 252.5C461.1 256.4 483.1 248.2 498.9 234C514.7 219.9 524.9 200.3 531.2 180.1C543.3 141.4 541.3 97 519.4 62.9C489.5 16.8 395.5 -7.9 354.3 37.7Z" fill="#FFF3E6"/>
<path d="M383.3 -28.4C398.7 -10.6 402.8 19.4 385.5 35.3C370.2 49.4 346.1 46.9 326.2 40.7C306.3 34.5 286 25.4 265.5 29.4C243.2 33.7 227 52.4 209.7 67.2C192.4 82 167.4 93.9 147.7 82.6C138.2 77.2 132.1 67.6 125 59.3C117.8 51.1 107.8 43.6 97 45.2C82.8 47.3 75.6 63.2 63.9 71.6C49.3 82.1 27.4 79 14.5 66.5C1.60001 54 -2.59999 34.1 1.60001 16.7C7.60001 -8.2 28.7 -27.3 52.3 -37.5C75.8 -47.7 101.8 -50.3 127.3 -52.9C181.1 -58.2 235.3 -66 289.2 -68.9C324.4 -70.8 358 -51.8 383.3 -28.4Z" fill="#FFF3E6"/>
<path d="M148.7 -7.39999C148.9 11 163.2 28.3 181.2 31.9C212.1 38.1 246 8.3 273.1 24.5C288.3 33.6 292.9 53 297.7 70.1C302.5 87.2 311.8 106.3 329.3 109.2C352.4 113.1 374.7 85.6 396.3 94.8C407.8 99.7 413 113.2 414.4 125.6C415.8 138 414.9 150.9 419.4 162.6C427.2 182.8 451.1 194.1 472.5 190.6C493.9 187.1 511.9 171.1 521.4 151.7C530.9 132.3 532.8 109.8 530.8 88.3C527.8 56.5 516.4 25.1 495.4 1.10001C474.4 -22.9 443.4 -38.7 411.5 -38.2C384.9 -37.8 358.7 -26.6 332.5 -30.9C309.3 -34.8 289.5 -50.5 266.6 -56.1C232.7 -64.5 148.2 -54.4 148.7 -7.39999Z" fill="#FFD19F"/>
<path d="M391.7 122.8C396 117.2 400.1 112.1 404.8 106.9H379.3C382.2 112 388.7 119.7 391.7 122.8Z" fill="#FFB000"/>
<path d="M333.1 59.6C328.8 65.2 324.7 70.3 320 75.5H345.5C342.6 70.4 336.1 62.7 333.1 59.6Z" fill="#FF3333"/>
<path d="M49.6 5.59998C45.3 11.2 41.2 16.3 36.5 21.5H62C59.1 16.3 52.6 8.59998 49.6 5.59998Z" fill="#FF3333"/>
<path d="M380.9 4C374.5 18.6 382.7 39.1 398.4 41.3C408.8 42.7 420.6 36.7 429.2 42.8C435.4 47.2 436.5 56 435.3 63.4C434.1 70.9 431.2 78.1 431.3 85.7C431.6 102 447.6 115.4 463.9 115.8C480.2 116.2 495.5 105.7 504.2 91.9C512.9 78.1 515.8 61.3 516.1 45C516.5 26.1 513 5.7 499.5 -7.5C489.4 -17.5 474.9 -22 460.7 -22.6C445.3 -23.3 428.1 -21 413 -19.1C400 -17.5 386.2 -8.1 380.9 4Z" fill="#FF3333"/>
<path d="M389 58.7C394.3 58.6 399.5 57.1 404.8 57.7C410 58.3 415.5 62.1 415.5 67.4C415.5 72.5 410.4 76.2 405.6 77.8C391.1 82.7 373.5 76.6 365.5 63.5C363 59.4 361.4 54.2 363.6 49.9C367 43.9 371.5 46.3 375.3 48.9C376.1 49.5 377 54.4 378.7 55.9C381.3 58.1 385.6 58.7 389 58.7Z" fill="#FF3333"/>
<path d="M98.4 23.2C97.1 33.1 99.7 44 107.4 50.3C114.2 55.8 123.6 56.8 132.3 55.8C150.1 53.9 166.6 44.8 180 32.9C187.6 26.1 194.3 18.4 202.9 13C211.5 7.60001 222.6 4.90001 231.8 9.2C238.6 12.4 243.1 18.9 248.9 23.6C258.9 31.8 273.6 34.5 285.2 28.9C296.8 23.3 303.9 8.90001 299.8 -3.39999C295.6 -15.9 282.2 -22.8 269.5 -26.5C231.3 -37.6 190.5 -31.5 151.2 -25.2C123.7 -20.7 102.3 -6.3 98.4 23.2Z" fill="#FFB000"/>
<path d="M210.7 29.6C210 32.4 210.8 35.6 212.8 37.8C214.5 39.6 217 40.6 219.5 40.5C222 40.4 224.4 39.4 226.2 37.7C228.3 35.8 229.5 32.9 229.4 30.1C229.3 27.3 227.7 24.5 225.3 23.1C219.5 19.8 212.2 23.4 210.7 29.6Z" fill="#FFB000"/>
<path d="M88.8 26.5C88.8 23.1 89.2 19.7 88.5 16.4C87.8 13.1 85.7 9.80004 82.4 9.00004C80 8.40004 77.3 9.40004 75.4 11.1C73.5 12.8 72.4 15.1 71.7 17.6C69.4 25.4 71.3 33.8 74.6 41.2C77.5 47.8 81.7 54.1 87.6 58.1C91 60.4 95 61.9 99.1 62.3C101.5 62.5 109 62.7 106.1 58.8C105.1 57.4 102.7 56.3 101.5 55.1C100 53.7 98.6 52.2 97.3 50.5C94.8 47.3 92.8 43.7 91.3 39.9C89.7 35.7 88.8 31.1 88.8 26.5Z" fill="#FFB000"/>
<path d="M295.9 48.1C296.2 48.1 296.5 48.1 296.8 48.1C300.1 48.2 303.3 48.2 306.2 48.2C306.1 48.1 306.1 48 306 47.9C303.7 44.1 302.8 39.3 304.2 35C306.9 40.1 310.7 44.5 315.2 48C315.3 48 315.3 48.1 315.4 48.1C318.8 48 322.2 47.8 325.5 47.5C325.9 47.5 326.3 47.4 326.7 47.4C331.8 46.9 336.9 46.2 342 45.2C337.3 42.4 333.7 37.8 332 32.6C331.8 32 331.7 31.4 331.8 30.8C332.1 29.3 334.1 28.8 335.5 29.4C336.9 30 337.9 31.3 338.9 32.4C349.5 44.4 367.6 38.4 374.9 27.1C375.1 26.9 375.2 26.6 375.4 26.4C378.8 20.6 379.4 13.6 375 6.80001C369.3 -2.09999 356.1 -3.99999 349.7 -12C349 -12.9 348.4 -13.8 347.8 -14.9C344.7 -21.2 346.3 -28.9 343.6 -35.4C340.7 -42.6 332.7 -46.9 324.9 -46.9C321.6 -46.9 318.5 -46.2 315.4 -45C315.2 -44.9 315 -44.8 314.8 -44.8C311.8 -43.5 309 -41.8 306.5 -39.7C305.6 -36.7 304.9 -33.6 305.1 -30.1C305.5 -23.2 307.7 -16.4 311.7 -10.8C308.9 -9.5 305.6 -10.9 303.1 -12.8C299 -16 296.2 -20.7 294.9 -25.7C293.5 -23.3 292.1 -20.9 290.9 -18.4C290.4 -17.4 289.9 -16.4 289.4 -15.4C289.3 -15.2 289.2 -15 289.1 -14.9C286.2 -8.8 283.5 -2.59999 281.1 3.80001C283.2 7.30001 286.2 10.2 289.8 12.1C290.6 12.6 291.5 13 292.1 13.8C292.7 14.6 292.7 15.8 291.9 16.3C291.4 16.6 290.7 16.6 290.1 16.5C285.8 16 281.6 14.2 278.2 11.6C277.6 13.2 277.1 14.7 276.6 16.3L276.5 16.5C276.4 16.8 276.3 17.1 276.2 17.4C273.4 25 265.3 40.3 273.7 44.2C279.9 47.1 288.1 47.9 295.9 48.1ZM359.4 15.1C362.1 16.3 362.3 19.4 361.1 21.7C361 21.9 360.9 22 360.8 22.2C360.6 22.5 360.4 22.7 360.2 22.9C359.8 23.3 359.3 23.6 358.7 23.6C357.9 23.7 357.1 23.4 356.4 23C355.6 22.6 354.8 22 354.3 21.2C353.7 20.4 353.5 19.4 353.6 18.5C353.7 17.8 353.9 17.1 354.3 16.5C354.4 16.4 354.5 16.3 354.5 16.2C355.7 14.9 357.8 14.4 359.4 15.1ZM333.1 -31.2C334.1 -28.7 334.1 -26 333.9 -23.3C333.7 -20.2 334.2 -15.1 332 -13.9C331 -13.4 329.5 -13.6 327.2 -15C325.2 -16.3 324 -18.6 324 -21C324 -21.2 324 -21.4 324.1 -21.7C324.2 -22.8 324.6 -23.8 324.6 -24.9C324.5 -27.3 322.1 -29.2 322 -31.6C321.9 -34.3 324.7 -36.4 327.4 -36.1C330 -35.9 332.1 -33.7 333.1 -31.2ZM295.7 3.7C295.5 2.90001 295.3 2 295.6 1.2C296.8 -2.2 304.8 2.50001 306.9 3.30001C308.9 4.10001 311.1 5.40001 311.3 7.50001C311.4 8.80001 310.6 10 309.4 10.7C308.3 11.4 306.9 11.6 305.6 11.5C301.1 11.3 296.9 8 295.7 3.7Z" fill="#558248"/>
<path d="M368 -27.8C354.7 -12.8 340.1 1.1 324 12.9C315.9 18.8 307.5 24.2 298.7 28.9C289.9 33.6 280.6 37.5 271.1 40.2L271 39.8C280.4 36.6 289.4 32.3 297.9 27.4C306.4 22.4 314.5 16.7 322.2 10.5C337.6 -1.9 351.4 -16.2 363.8 -31.5L368 -27.8Z" fill="#406832"/>
<path d="M295.9 48.1C295.7 47.7 295.6 47.4 295.4 47C294.5 45 293.8 42.9 293.4 40.7C293 38.5 292.8 36.3 293.2 33.9C293.4 32.7 293.7 31.6 294.3 30.5C294.3 30.4 294.4 30.4 294.4 30.3C294.6 30 294.8 29.7 295 29.4C290.2 28.3 285.8 26.1 282.1 23.1C280.1 21.5 278.2 19.6 276.6 17.6C276.7 17.3 276.8 17 276.9 16.7L277 16.5C278.8 18.6 280.8 20.4 283 21.9C287.3 25 292.4 26.9 297.6 27.4L299.5 27.6L300.2 27.7L298.1 29.6C296.6 30.6 295.6 32.4 295.1 34.3C294.6 36.3 294.6 38.4 294.8 40.5C295 42.6 295.5 44.7 296.3 46.7C296.5 47.2 296.7 47.7 296.8 48.2C296.5 48.1 296.2 48.1 295.9 48.1Z" fill="#406832"/>
<path d="M325.5 47.5C322.9 43.8 321 39.5 320.1 35C319.1 29.8 319.3 24.4 320.8 19.2C321.7 16.1 322.9 13.2 324.6 10.5C325.3 9.40001 326 8.30001 326.9 7.30001C319.5 6.20001 312.3 3.60001 305.9 -0.199986C299.5 -3.99999 293.9 -8.89999 289.5 -14.8C289.6 -15 289.7 -15.2 289.8 -15.3C294.5 -9.59999 300.3 -4.89999 306.7 -1.49999C313.8 2.30001 321.7 4.60001 329.7 5.00001L331.5 5.10001L332.7 5.20001L330.6 7.30001C323.6 14.3 320.2 24.9 321.8 34.9C322.5 39.4 324.3 43.7 326.9 47.6C326.3 47.5 325.9 47.5 325.5 47.5Z" fill="#406832"/>
<path d="M353.6 18.7C350.2 15.8 347.4 12.1 345.5 7.90001C344.5 5.60001 343.8 3.10001 343.5 0.60001C343.2 -1.39999 343.2 -3.49999 343.5 -5.59999C343.4 -5.59999 343.4 -5.59999 343.3 -5.59999C334.6 -8.09999 326.9 -13.6 321.8 -20.9C317 -27.8 314.6 -36.3 315 -44.6C315.2 -44.7 315.4 -44.8 315.6 -44.8C315.6 -36.5 318.4 -28.4 323.3 -21.9C323.6 -21.6 323.8 -21.2 324.1 -20.9C324 -18.5 325.3 -16.2 327.3 -14.9C329.6 -13.5 331.1 -13.3 332.1 -13.8C336.3 -11 340.9 -9.09999 345.8 -8.19999L346.2 -8.09999L347.3 -7.89999L347 -6.19999C346.4 -3.99999 346.2 -1.79999 346.4 0.500011C346.6 2.80001 347.1 5.00001 347.9 7.20001C349.3 10.8 351.5 14.2 354.3 17C353.9 17.3 353.6 18 353.6 18.7Z" fill="#406832"/>
<path d="M360.2 23C360.4 22.8 360.6 22.5 360.8 22.3C360.9 22.1 361 22 361.1 21.8C363.4 23 365.8 24.1 368.2 24.8C370.5 25.5 372.9 26 375.2 26.4C375.1 26.6 374.9 26.9 374.7 27.1C372.4 26.8 370.1 26.4 367.8 25.8C365.3 25.2 362.7 24.2 360.2 23Z" fill="#406832"/>
<path d="M430.9 154.9C428.5 155.2 426 154.9 424.4 153.2C423.8 152.5 423.4 151.6 423.5 150.7C423.7 149.4 424.8 148.5 425.9 147.9C427.4 147.2 429.1 146.8 430.6 146.4C434.2 145.4 437.9 144.8 441.6 144.5C442.2 144.5 442.8 144.6 443.4 144.9C447.4 147.2 436.8 153 435.1 153.8C434 154.2 432.5 154.7 430.9 154.9Z" fill="#558248"/>
<path d="M451.3 136.8C449 135.9 446.7 135.1 444.3 134.5C442.7 134.1 441 133.7 439.4 133.9C437.7 134.1 436.1 135.1 435.5 136.6C434.7 138.6 435.9 141.1 437.8 142.3C439.7 143.5 442 143.6 444.2 143.5C447.2 143.4 450.2 142.8 452.9 141.4C454.2 140.8 455.8 140.3 454.9 138.9C454.2 137.9 452.4 137.3 451.3 136.8Z" fill="#558248"/>
<path d="M467.1 124.4C466.1 123.3 464.6 122.7 463.1 122.3C460 121.4 456.8 121.1 453.7 121.3C451.2 121.5 448.6 122.1 446.9 123.9C445.2 125.7 444.8 128.9 446.7 130.5C448 131.6 449.9 131.6 451.7 131.5C454.7 131.5 473.4 131.2 467.1 124.4Z" fill="#558248"/>
<path d="M458.8 119.9C456.6 120.1 453.8 119.7 452.9 117.7C452.3 116.5 452.7 115 453.4 113.9C454.2 112.8 455.3 112 456.4 111.3C460.4 108.9 465 107.4 469.7 106.9C471.2 106.8 472.6 106.7 474 107.1C476 107.7 477.9 109.2 476.3 111.1C474.9 112.8 473 114.3 471.2 115.5C467.5 118 463.2 119.5 458.8 119.9Z" fill="#558248"/>
<path d="M453.7 155.3C453 156.3 452.1 157.3 451.1 158C450 158.6 448.7 158.9 447.5 158.5C445.8 157.9 444.7 156 444.5 154.2C444 150.9 445.5 147.6 447.7 145.1C449.8 142.8 452.6 140.6 455.4 139.2C457 140.9 456.8 145.2 456.6 147.4C456.3 150.3 455.3 153 453.7 155.3Z" fill="#558248"/>
<path d="M471.4 143.1C470.7 145.2 469.5 147.3 467.7 148.5C465.9 149.8 463.3 150.2 461.4 149C459.4 147.7 458.7 145.1 458.8 142.7C459 139.3 460.4 136 462.4 133.2C463.8 131.1 465.6 129.2 467.4 127.5C469.5 125.4 470.6 126.4 471.4 129C473 133.5 473 138.6 471.4 143.1Z" fill="#558248"/>
<path d="M447.2 140C449.2 140.1 451.1 140.3 453.1 140.6C448 144 442.3 146.7 436.4 148.3L436.5 148.7C442.4 147.3 448.1 144.9 453.3 141.7C452.1 145.6 450.3 149.4 448.1 152.8L448.4 153C451.4 149.2 453.8 144.8 455.5 140.2C460 137.1 464.1 133.4 467.6 129.2C468 134 466.9 139 464.4 143.3L464.7 143.5C467.9 138.9 469.4 133.1 468.9 127.4C472.4 122.8 475.2 117.6 477.2 112.1C480.1 117.7 481.2 124.3 480.2 130.7L480.6 130.8C482.2 123.8 481.3 116.2 478 109.6C479.8 103.8 480.8 97.6 480.8 91.5L477.7 91.6C477.9 97.4 477.2 103.3 475.6 109C472.2 109.9 469 111.1 465.9 112.6C462.5 114.3 459.3 116.4 456.4 118.9L456.7 119.2C459.7 117 463 115.1 466.4 113.7C469.2 112.6 472.1 111.7 475 111.1C473.3 116.4 470.8 121.5 467.6 126.1C460.7 125.2 453.6 125.7 447 127.5L447.1 127.9C453.5 126.6 460.2 126.4 466.6 127.5C463.3 131.9 459.4 135.8 454.9 139.1H454.6C452 138.9 449.5 138.8 446.9 138.9C444.3 139 441.8 139.4 439.3 140L439.4 140.4C442.1 140 444.7 139.9 447.2 140Z" fill="#406832"/>
<path d="M134.4 30.6C127.3 30.6 120.4 29.2 114.1 26.2C100.1 19.6 90.3 5.70001 89 -9.19999L92.2 -9.49999C93.3 4.30001 102.5 17.2 115.4 23.3C127.8 29.2 143.5 28.7 156.2 22C168.3 15.6 178 3.60001 182 -10.3L185.1 -9.39999C180.7 5.50001 170.8 17.9 157.7 24.8C150.6 28.7 142.5 30.6 134.4 30.6Z" fill="#558248"/>
<path d="M137.2 18.8C137.1 18.8 137 18.8 136.9 18.8C120.2 18.7 104.5 7.10001 99.4 -8.79999L102.5 -9.79999C107.1 4.80001 121.6 15.5 136.9 15.5C137 15.5 137.1 15.5 137.1 15.5C152.3 15.5 166.8 5.00001 171.5 -9.49999L174.6 -8.49999C169.5 7.30001 153.8 18.8 137.2 18.8Z" fill="#558248"/>
<path d="M138.6 9.30003C128.4 9.30003 118.5 1.60002 116.2 -8.39998L119.3 -9.09998C121.4 -0.199976 130.5 6.60002 139.6 6.00002C147.4 5.50002 154.8 -0.499976 157.2 -8.29998L160.3 -7.39998C157.6 1.60002 149 8.60002 139.9 9.20002C139.4 9.30002 139 9.30003 138.6 9.30003Z" fill="#558248"/>
<path d="M163.1 39.3C159.7 45 160.2 52.8 164.2 58.1C168.2 63.4 175.6 65.9 182 64.2C189.4 62.3 194.9 54.9 194.7 47.3C194.2 30.6 171.5 25 163.1 39.3ZM179.6 54.9C176.8 55.6 173.7 54.5 172 52.3C170.3 50 170.1 46.7 171.5 44.2C175.1 38.1 184.9 40.5 185.1 47.6C185.1 50.9 182.7 54.1 179.6 54.9Z" fill="#FF3333"/>
<path d="M477 51.1C449.7 73 421.5 95.8 405.6 126.9C399.2 139.4 395.7 156.6 406 166.2C413.5 173.2 425 173 435.3 173.2C445.6 173.4 457.6 175.6 462.2 184.8C467.8 195.9 459 208.6 458.5 221C457.9 237.6 474.2 251.8 490.8 251.6C507.4 251.4 522.3 239.2 528.9 224C535.5 208.8 534.7 191.2 530.2 175.2" stroke="white" stroke-width="5" stroke-miterlimit="10"/>
</g>
<defs>
<clipPath id="clip0_50_124">
<rect width="538.4" height="323.1" fill="white" transform="translate(0 -69)"/>
</clipPath>
</defs>
</svg>
