<svg width="97" height="41" viewBox="0 0 97 41" fill="none" xmlns="http://www.w3.org/2000/svg">
<path d="M45.4 40.9C38.3 40.9 31.4 39.5 25.1 36.5C11.1 29.9 1.3 16 0 1.1L3.2 0.799999C4.3 14.6 13.5 27.5 26.4 33.6C38.8 39.5 54.5 39 67.2 32.3C79.3 25.9 89 13.9 93 0L96.1 0.899998C91.7 15.8 81.8 28.2 68.7 35.1C61.6 39 53.5 40.9 45.4 40.9Z" fill="#558248"/>
<path d="M48.2 29.1C48.1 29.1 48 29.1 47.9 29.1C31.2 29 15.5 17.4 10.4 1.5L13.5 0.5C18.1 15.1 32.6 25.8 47.9 25.8C48 25.8 48.1 25.8 48.1 25.8C63.3 25.8 77.8 15.3 82.5 0.799999L85.6 1.8C80.5 17.6 64.8 29.1 48.2 29.1Z" fill="#558248"/>
<path d="M49.6 19.6C39.4 19.6 29.5 11.9 27.2 1.89999L30.3 1.2C32.4 10.1 41.5 16.9 50.6 16.3C58.4 15.8 65.8 9.8 68.2 2L71.3 2.89999C68.6 11.9 60 18.9 50.9 19.5C50.4 19.6 50 19.6 49.6 19.6Z" fill="#558248"/>
</svg>
